<?xml version="1.0" standalone="no"?>
<!DOCTYPE svg PUBLIC "-//W3C//DTD SVG 1.1//EN" "http://www.w3.org/Graphics/SVG/1.1/DTD/svg11.dtd"><svg t="1729996216077"
    class="icon" viewBox="0 0 1024 1024" version="1.1" xmlns="http://www.w3.org/2000/svg" p-id="1352"
    xmlns:xlink="http://www.w3.org/1999/xlink" width="512" height="512">
    <path
        d="M511.3 874.9c-48.9 0-96.4-9.6-141.2-28.5-43.2-18.3-82-44.4-115.3-77.7-33.3-33.3-59.4-72.1-77.7-115.3-18.9-44.7-28.5-92.2-28.5-141.2 0-48.9 9.6-96.4 28.5-141.2 18.3-43.2 44.4-82 77.7-115.3 33.3-33.3 72.1-59.4 115.3-77.7 44.7-18.9 92.2-28.5 141.2-28.5 48.9 0 96.4 9.6 141.2 28.5 43.2 18.3 82 44.4 115.3 77.7 33.3 33.3 59.4 72.1 77.7 115.3 18.9 44.7 28.5 92.2 28.5 141.2 0 48.9-9.6 96.4-28.5 141.2-18.3 43.2-44.4 82-77.7 115.3-33.3 33.3-72.1 59.4-115.3 77.7-44.7 18.9-92.2 28.5-141.2 28.5z m0-665.4c-166.9 0-302.7 135.8-302.7 302.7 0 166.9 135.8 302.7 302.7 302.7 166.9 0 302.7-135.8 302.7-302.7 0-166.9-135.8-302.7-302.7-302.7zM128 313.8c-5.2 0-10.5-1.4-15.3-4.2-14.2-8.5-18.9-26.9-10.5-41.1 40.4-68 97.6-125.5 165.4-166.2 14.2-8.5 32.6-3.9 41.2 10.3 8.5 14.2 3.9 32.6-10.3 41.2-59.3 35.6-109.4 85.9-144.7 145.4-5.6 9.4-15.6 14.6-25.8 14.6zM897.5 312.9c-10.2 0-20.2-5.2-25.8-14.6-35.4-59.4-85.6-109.6-145-145.1-14.2-8.5-18.9-26.9-10.4-41.1 8.5-14.2 26.9-18.9 41.1-10.4 67.9 40.6 125.2 97.9 165.7 165.8 8.5 14.2 3.8 32.6-10.4 41.1-4.7 3-10 4.3-15.2 4.3z"
        fill="#707070" p-id="1353" data-spm-anchor-id="a313x.collections_detail.0.i0.7ef83a81uEhfbn" class="selected">
    </path>
    <path
        d="M223.6 923.1c-7.7 0-15.4-2.9-21.2-8.8-11.7-11.7-11.7-30.7 0-42.4l96.4-96.4c11.7-11.7 30.7-11.7 42.4 0s11.7 30.7 0 42.4l-96.4 96.4c-5.8 5.9-13.5 8.8-21.2 8.8zM800.6 923.1c-7.7 0-15.4-2.9-21.2-8.8L683 817.9c-11.7-11.7-11.7-30.7 0-42.4s30.7-11.7 42.4 0l96.4 96.4c11.7 11.7 11.7 30.7 0 42.4-5.9 5.9-13.6 8.8-21.2 8.8z"
        fill="#707070" p-id="1354"></path>
    <path
        d="M647.5 677.5c-7.6 0-15.3-2.9-21.1-8.7L490.2 533.5c-5.7-5.6-8.9-13.3-8.9-21.3V283.8c0-16.6 13.4-30 30-30s30 13.4 30 30v215.9l127.3 126.5c11.8 11.7 11.8 30.7 0.1 42.4-5.7 6-13.5 8.9-21.2 8.9z"
        fill="#707070" p-id="1355" data-spm-anchor-id="a313x.collections_detail.0.i1.7ef83a81uEhfbn" class="selected">
    </path>
</svg>