<?xml version="1.0" standalone="no"?><!DOCTYPE svg PUBLIC "-//W3C//DTD SVG 1.1//EN" "http://www.w3.org/Graphics/SVG/1.1/DTD/svg11.dtd"><svg t="1729996461635" class="icon" viewBox="0 0 1024 1024" version="1.1" xmlns="http://www.w3.org/2000/svg" p-id="6131" xmlns:xlink="http://www.w3.org/1999/xlink" width="512" height="512"><path d="M509.65 961C263.6 961 62.3 759.26 62.3 512.7S263.6 64.41 509.65 64.41 957 266.14 957 512.7 755.69 961 509.65 961zM654 856.61a377.28 377.28 0 0 0 198.65-199.12 371.82 371.82 0 0 0 0-289.58A377.18 377.18 0 0 0 654 168.79a369.15 369.15 0 0 0-288.64 0 377.09 377.09 0 0 0-198.71 199.12 371.82 371.82 0 0 0 0 289.58A377.12 377.12 0 0 0 365.33 856.6a369.21 369.21 0 0 0 288.64 0z" fill="#707070" p-id="6132" data-spm-anchor-id="a313x.search_index.0.i13.66903a81vIZCPL" class="selected"></path><path d="M270.87 473.67m37.5 0l405 0q37.5 0 37.5 37.5l0 0q0 37.5-37.5 37.5l-405 0q-37.5 0-37.5-37.5l0 0q0-37.5 37.5-37.5Z" fill="#707070" p-id="6133" data-spm-anchor-id="a313x.search_index.0.i12.66903a81vIZCPL" class="selected"></path><path d="M473.37 751.17m0-37.5l0-405q0-37.5 37.5-37.5l0 0q37.5 0 37.5 37.5l0 405q0 37.5-37.5 37.5l0 0q-37.5 0-37.5-37.5Z" fill="#707070" p-id="6134" data-spm-anchor-id="a313x.search_index.0.i14.66903a81vIZCPL" class="selected"></path></svg>