<?xml version="1.0" standalone="no"?><!DOCTYPE svg PUBLIC "-//W3C//DTD SVG 1.1//EN" "http://www.w3.org/Graphics/SVG/1.1/DTD/svg11.dtd"><svg t="1730005148249" class="icon" viewBox="0 0 1024 1024" version="1.1" xmlns="http://www.w3.org/2000/svg" p-id="15162" data-spm-anchor-id="a313x.search_index.0.i28.66903a81vIZCPL" xmlns:xlink="http://www.w3.org/1999/xlink" width="512" height="512"><path d="M771.104 145.056l0-60.096c0-17.664-14.304-32-32-32s-32 14.336-32 32l0 60.096-384 0 0-60.096c0-17.664-14.336-32-32-32s-32 14.336-32 32l0 60.096-202.208 0 0 825.952 910.208 0 0-825.952L771.104 145.056zM259.104 209.952l0 67.04c0 17.664 14.336 32 32 32s32-14.336 32-32l0-67.04 384 0 0 67.04c0 17.664 14.304 32 32 32s32-14.336 32-32l0-67.04 131.136 0 0 99.04-163.136 0-448 0-169.344 0 0-99.04L259.104 209.952zM121.76 906.176l0-533.184 780.48 0 0 533.184L121.76 906.176z" fill="#707070" p-id="15163" data-spm-anchor-id="a313x.search_index.0.i27.66903a81vIZCPL" class=""></path><path d="M214.208 473.728l123.904 0 0 123.712-123.904 0 0-123.712Z" fill="#707070" p-id="15164" data-spm-anchor-id="a313x.search_index.0.i30.66903a81vIZCPL" class=""></path><path d="M442.912 473.728l123.904 0 0 123.712-123.904 0 0-123.712Z" fill="#707070" p-id="15165"></path><path d="M671.648 473.728l123.904 0 0 123.712-123.904 0 0-123.712Z" fill="#707070" p-id="15166"></path><path d="M214.208 692.32l123.904 0 0 123.712-123.904 0 0-123.712Z" fill="#707070" p-id="15167"></path><path d="M442.912 692.32l123.904 0 0 123.712-123.904 0 0-123.712Z" fill="#707070" p-id="15168" data-spm-anchor-id="a313x.search_index.0.i29.66903a81vIZCPL" class=""></path><path d="M671.648 692.32l123.904 0 0 123.712-123.904 0 0-123.712Z" fill="#707070" p-id="15169"></path></svg>