<?xml version="1.0" standalone="no"?><!DOCTYPE svg PUBLIC "-//W3C//DTD SVG 1.1//EN" "http://www.w3.org/Graphics/SVG/1.1/DTD/svg11.dtd"><svg t="1729996510620" class="icon" viewBox="0 0 1024 1024" version="1.1" xmlns="http://www.w3.org/2000/svg" p-id="1583" xmlns:xlink="http://www.w3.org/1999/xlink" width="512" height="512"><path d="M679.59 62.8H342.38a32.72 32.72 0 0 0-31 22.36l-35.27 105.75H94.62a32 32 0 0 0 0 64.06h832.73a32 32 0 1 0 0-64.06H745.86L710.61 85.16a32.71 32.71 0 0 0-31-22.36z m-336 128.11l21.36-64H657l21.35 64.05zM799.24 319a32 32 0 0 0-32 32v477.31A67.23 67.23 0 0 1 700 895.54H322a67.23 67.23 0 0 1-67.23-67.23V351.05a32 32 0 0 0-64.06 0v488.73a119.82 119.82 0 0 0 119.8 119.82h401a119.81 119.81 0 0 0 119.76-119.82V351.05a32 32 0 0 0-32-32z m0 0" fill="#707070" p-id="1584" data-spm-anchor-id="a313x.collections_detail.0.i4.2e0f3a81socmOD" class="selected"></path><path d="M350.84 319a32 32 0 0 0-32 32v448.4a32 32 0 1 0 64.05 0V351.05a32 32 0 0 0-32-32zM511 319a32 32 0 0 0-32 32v448.4a32 32 0 1 0 64.05 0V351.05a32 32 0 0 0-32-32z m160.15 0a32 32 0 0 0-32 32v448.4a32 32 0 0 0 64.06 0V351.05a32 32 0 0 0-32-32z m0 0" fill="#707070" p-id="1585" data-spm-anchor-id="a313x.collections_detail.0.i5.2e0f3a81socmOD" class="selected"></path></svg>